<?xml version="1.0" standalone="no"?>
<!DOCTYPE svg PUBLIC "-//W3C//DTD SVG 20010904//EN"
 "http://www.w3.org/TR/2001/REC-SVG-20010904/DTD/svg10.dtd">
<svg version="1.0" xmlns="http://www.w3.org/2000/svg"
 width="339.000000pt" height="510.000000pt" viewBox="0 0 339.000000 510.000000"
 preserveAspectRatio="xMidYMid meet">
<metadata>
Created by potrace 1.10, written by Peter Selinger 2001-2011
</metadata>
<g transform="translate(0.000000,510.000000) scale(0.100000,-0.100000)"
fill="#000000" stroke="none">
<path d="M1600 4941 c-58 -12 -105 -38 -163 -91 -77 -70 -117 -155 -117 -247
0 -49 -9 -52 -53 -20 -64 45 -105 57 -198 57 -80 0 -96 -3 -155 -32 -75 -36
-151 -112 -186 -186 -21 -44 -23 -60 -24 -259 0 -117 -3 -216 -7 -219 -4 -4
-30 9 -59 29 -98 66 -240 71 -353 13 -44 -22 -145 -120 -145 -139 0 -7 -5 -18
-11 -24 -7 -7 -20 -36 -30 -65 -18 -50 -19 -105 -19 -1098 0 -663 4 -1069 11
-1110 5 -36 14 -92 19 -125 5 -33 13 -73 18 -90 6 -16 17 -55 26 -85 33 -108
93 -247 137 -315 10 -16 22 -37 26 -45 29 -62 115 -170 223 -283 64 -67 257
-227 274 -227 3 0 24 -12 48 -27 88 -57 120 -73 238 -120 255 -103 524 -134
835 -94 164 21 414 110 570 204 183 111 334 248 470 427 39 52 74 102 78 110
4 8 16 29 27 45 54 85 134 275 163 390 56 222 52 134 52 1100 l0 890 -23 32
c-12 18 -43 42 -68 54 -41 21 -48 22 -92 10 -26 -8 -58 -16 -72 -18 -14 -3
-38 -11 -55 -18 -16 -8 -37 -16 -45 -20 -68 -27 -190 -127 -216 -177 -9 -17
-23 -28 -35 -28 -18 0 -20 4 -14 28 4 15 10 257 12 538 4 480 3 513 -14 565
-43 125 -104 196 -210 248 -55 28 -72 31 -152 31 -95 0 -134 -13 -207 -67 -17
-13 -34 -23 -37 -23 -4 0 -7 47 -7 104 0 88 -4 112 -24 157 -42 94 -97 151
-194 201 -41 21 -180 32 -242 19z m179 -142 c64 -30 126 -99 142 -156 10 -39
13 -230 14 -984 l0 -937 -59 -7 c-48 -5 -64 -12 -88 -37 -33 -35 -34 -40 -11
-74 24 -37 50 -43 113 -28 67 16 169 18 206 4 53 -21 95 -16 121 14 29 34 29
44 0 80 -18 23 -36 31 -86 40 l-63 12 1 752 c2 846 -3 790 80 871 46 45 106
71 162 71 70 0 156 -56 207 -134 l27 -41 0 -1050 0 -1049 -100 -17 c-99 -17
-175 -38 -211 -57 -11 -6 -39 -20 -64 -32 -63 -29 -74 -37 -167 -108 -78 -59
-193 -182 -214 -227 -5 -11 -18 -33 -29 -50 -11 -16 -22 -37 -26 -45 -3 -8
-10 -23 -16 -34 -53 -98 -110 -399 -86 -452 16 -35 60 -49 96 -30 32 17 44 44
36 86 -6 28 26 198 49 260 65 179 206 349 371 448 48 29 91 52 97 52 6 0 20 6
32 12 37 21 108 38 188 47 60 6 85 14 115 36 74 53 74 52 74 448 1 313 3 358
19 402 28 79 42 106 87 165 76 100 153 156 275 200 110 40 100 130 96 -822 -3
-856 -4 -876 -44 -1033 -38 -146 -103 -306 -163 -400 -11 -16 -23 -37 -27 -45
-46 -102 -348 -410 -443 -453 -8 -4 -28 -16 -45 -27 -16 -11 -39 -24 -50 -30
-11 -5 -27 -14 -35 -19 -68 -43 -262 -112 -365 -131 -27 -6 -70 -14 -95 -19
-58 -13 -361 -13 -420 -1 -25 6 -67 15 -95 20 -140 28 -337 106 -450 180 -16
11 -37 23 -45 27 -32 15 -148 108 -210 168 -232 227 -349 437 -436 785 -18 71
-19 131 -19 1175 l0 1100 27 42 c34 52 61 77 110 103 53 28 144 27 198 -1 52
-27 112 -96 127 -147 9 -28 13 -181 13 -552 1 -281 0 -513 -2 -515 -2 -2 -32
-8 -66 -14 -95 -15 -131 -71 -78 -120 27 -26 37 -26 153 -10 67 10 94 10 156
-2 86 -17 110 -11 128 33 24 58 -13 93 -113 105 l-48 6 1 826 c0 930 -4 872
77 956 43 44 111 75 165 75 81 0 175 -61 216 -140 21 -40 21 -48 22 -813 l1
-772 -55 -3 c-72 -4 -113 -37 -103 -84 7 -37 37 -68 64 -68 11 0 36 7 55 15
46 19 169 19 222 0 52 -19 65 -18 93 4 16 14 22 30 22 58 0 48 -24 66 -100 73
l-55 5 0 930 0 930 22 40 c62 111 200 163 302 114z"/>
</g>
</svg>
