<?xml version="1.0" standalone="no"?>
<!DOCTYPE svg PUBLIC "-//W3C//DTD SVG 20010904//EN"
 "http://www.w3.org/TR/2001/REC-SVG-20010904/DTD/svg10.dtd">
<svg version="1.0" xmlns="http://www.w3.org/2000/svg"
 width="306.000000pt" height="507.000000pt" viewBox="0 0 306.000000 507.000000"
 preserveAspectRatio="xMidYMid meet">
<metadata>
Created by potrace 1.10, written by Peter Selinger 2001-2011
</metadata>
<g transform="translate(0.000000,507.000000) scale(0.100000,-0.100000)"
fill="#000000" stroke="none">
<path d="M1643 3532 c-88 -7 -216 -97 -254 -179 -11 -24 -24 -43 -30 -43 -6 0
-23 13 -39 29 -61 60 -104 75 -225 75 -97 1 -116 -2 -160 -24 -56 -27 -150
-115 -165 -155 -8 -22 -13 -24 -30 -15 -10 6 -31 21 -46 35 -58 54 -110 70
-224 69 -100 0 -108 -2 -168 -34 -73 -39 -127 -94 -168 -171 l-29 -54 0 -865
c0 -803 1 -870 18 -940 10 -41 23 -88 29 -105 5 -16 14 -43 18 -60 27 -94 88
-228 145 -313 19 -30 35 -56 35 -59 0 -3 17 -27 37 -52 21 -25 47 -57 58 -71
29 -36 157 -161 191 -187 117 -91 182 -131 289 -182 39 -18 83 -39 98 -47 16
-8 35 -14 42 -14 8 0 29 -6 47 -14 129 -54 433 -82 610 -55 121 18 259 53 336
85 57 24 107 46 122 55 8 4 38 20 65 35 57 30 138 85 143 97 2 4 7 7 12 7 27
0 195 165 274 270 145 192 204 317 270 575 28 108 36 296 36 832 0 530 -4 583
-38 653 -29 60 -123 145 -180 164 -29 10 -54 22 -57 27 -4 5 -7 64 -9 131 -2
101 -7 131 -24 169 -32 68 -102 140 -174 179 -61 33 -67 35 -173 35 -121 0
-155 -11 -225 -74 -19 -18 -40 -29 -48 -26 -7 3 -16 5 -18 5 -2 0 -4 7 -4 16
0 47 -98 140 -185 176 -41 17 -128 26 -202 20z m132 -140 c72 -31 103 -55 136
-107 l33 -50 6 -163 c3 -90 3 -166 1 -168 -2 -2 -113 -4 -247 -4 l-242 0 3
153 c2 90 9 168 17 191 18 54 91 124 153 146 63 23 90 23 140 2z m-603 -119
c107 -43 157 -127 165 -275 l4 -98 -137 0 -137 0 -42 -34 c-53 -44 -74 -106
-56 -165 6 -21 11 -46 11 -56 0 -9 21 -61 47 -114 38 -76 63 -112 123 -172 41
-42 92 -84 113 -94 22 -10 41 -25 45 -33 8 -23 -85 -104 -144 -125 -61 -21
-86 -21 -144 0 -58 22 -83 41 -128 100 l-37 48 0 435 0 435 26 40 c69 105 187
149 291 108z m1232 0 c59 -22 122 -83 147 -144 12 -31 18 -72 18 -136 l1 -93
-245 0 -246 0 6 111 c5 105 6 113 39 162 69 103 170 139 280 100z m-1851 -90
c56 -20 109 -67 137 -123 19 -37 20 -59 20 -370 0 -310 -1 -333 -20 -370 -40
-79 -164 -149 -239 -135 -87 16 -167 78 -203 158 -16 33 -18 73 -18 346 0 350
2 360 80 436 73 71 153 90 243 58z m2138 -425 c50 -17 104 -63 128 -108 21
-40 21 -51 21 -638 0 -624 -2 -660 -46 -822 -28 -102 -88 -243 -135 -315 -10
-16 -22 -37 -26 -45 -29 -65 -219 -268 -318 -342 -166 -123 -323 -192 -551
-242 -97 -22 -360 -22 -452 -1 -150 35 -270 75 -342 116 -8 4 -35 18 -60 31
-25 12 -49 26 -55 30 -5 5 -48 37 -95 72 -232 172 -411 440 -483 721 -39 150
-46 244 -48 583 0 183 2 336 5 339 3 3 17 -3 32 -13 86 -60 105 -66 209 -66
89 0 106 3 153 27 29 14 66 40 83 56 36 35 55 37 63 4 9 -37 83 -108 151 -146
57 -32 65 -33 165 -33 90 0 111 4 150 24 67 35 108 68 125 101 20 38 37 37 70
-6 30 -41 90 -82 126 -87 37 -5 36 -39 -3 -79 -123 -129 -208 -339 -222 -550
-6 -87 -5 -97 14 -122 29 -36 71 -36 99 -1 16 20 21 41 21 83 0 60 19 167 43
242 14 42 21 59 48 109 5 8 19 35 31 59 28 55 152 188 227 245 59 44 139 88
206 112 68 25 215 54 275 54 58 0 79 12 93 53 9 24 -7 63 -30 72 -10 4 -182 7
-383 6 -288 -1 -380 1 -435 13 -81 17 -141 38 -157 54 -7 7 -16 12 -20 12 -5
0 -33 18 -63 41 -77 58 -145 151 -183 249 -26 68 -30 87 -20 103 8 16 71 17
782 17 559 0 782 -3 807 -12z m-1171 -568 c0 -5 -7 -10 -15 -10 -8 0 -15 5
-15 10 0 6 7 10 15 10 8 0 15 -4 15 -10z m188 -30 c91 0 102 -2 102 -18 0 -27
-64 -57 -119 -54 -41 1 -61 7 -111 32 -8 4 -17 17 -18 30 -3 20 0 22 20 17 12
-4 69 -7 126 -7z"/>
</g>
</svg>
