<?xml version="1.0" standalone="no"?>
<!DOCTYPE svg PUBLIC "-//W3C//DTD SVG 20010904//EN"
 "http://www.w3.org/TR/2001/REC-SVG-20010904/DTD/svg10.dtd">
<svg version="1.0" xmlns="http://www.w3.org/2000/svg"
 width="336.000000pt" height="510.000000pt" viewBox="0 0 336.000000 510.000000"
 preserveAspectRatio="xMidYMid meet">
<metadata>
Created by potrace 1.10, written by Peter Selinger 2001-2011
</metadata>
<g transform="translate(0.000000,510.000000) scale(0.100000,-0.100000)"
fill="#000000" stroke="none">
<path d="M1550 4941 c-100 -23 -202 -114 -254 -226 -18 -38 -19 -76 -17 -772
1 -403 0 -737 -4 -743 -4 -6 -21 1 -44 19 -47 38 -142 71 -202 71 -46 0 -125
-23 -188 -56 -59 -30 -125 -106 -146 -168 -11 -31 -25 -56 -33 -56 -7 0 -30
13 -50 29 -89 71 -260 86 -352 30 -8 -5 -24 -13 -35 -18 -43 -19 -113 -92
-145 -153 l-35 -63 1 -660 c0 -588 2 -669 18 -740 25 -116 63 -245 91 -310 73
-167 113 -236 211 -365 311 -409 776 -641 1288 -640 95 0 246 15 311 32 22 5
58 13 80 18 38 7 54 13 150 47 143 52 334 160 453 255 34 28 219 214 250 251
78 96 242 375 242 413 0 7 6 25 14 41 18 36 36 89 46 133 4 19 12 55 18 80 36
153 36 156 40 1030 2 798 1 867 -14 896 -18 33 -82 80 -122 91 -45 11 -211
-49 -281 -101 -19 -14 -40 -26 -47 -26 -21 0 -26 20 -12 43 17 25 48 128 103
332 8 30 22 80 30 110 15 55 31 116 60 223 9 31 23 79 31 105 21 66 21 217 0
259 -9 17 -16 35 -16 41 0 24 -123 157 -145 157 -6 0 -16 5 -23 12 -19 19
-123 48 -174 48 -116 0 -244 -71 -310 -173 -32 -48 -50 -98 -83 -222 -7 -27
-20 -75 -28 -105 -23 -83 -65 -242 -92 -350 -9 -36 -20 -78 -25 -95 -11 -42
-38 -170 -47 -230 -7 -45 -11 -50 -37 -53 -28 -3 -28 -3 -22 35 16 94 25 372
25 778 0 402 -1 445 -18 493 -10 29 -23 58 -30 65 -6 6 -11 16 -11 22 0 18
-113 120 -160 143 -50 25 -195 38 -260 23z m176 -137 c57 -24 112 -71 137
-118 l22 -41 3 -961 2 -961 -49 -6 c-28 -3 -64 -13 -80 -22 -26 -13 -31 -21
-31 -54 0 -65 56 -91 134 -61 38 14 141 12 201 -3 61 -16 95 -9 114 24 32 56
-12 104 -108 118 l-46 7 2 64 c2 36 9 88 17 115 8 28 21 75 29 105 46 176 64
243 91 340 9 30 22 80 30 110 14 52 30 112 61 225 13 48 22 83 59 225 10 36
23 85 31 110 7 25 20 74 30 110 9 36 23 88 31 116 8 28 14 57 14 64 0 21 69
99 113 128 35 23 50 27 116 26 64 0 83 -5 117 -26 98 -62 144 -172 115 -272
-15 -49 -38 -136 -56 -206 -9 -36 -23 -89 -31 -117 -39 -142 -63 -233 -87
-323 -29 -112 -49 -186 -63 -237 -8 -29 -21 -78 -29 -108 -27 -100 -48 -170
-59 -190 -35 -68 -39 -111 -45 -475 l-6 -364 -100 -17 c-158 -27 -272 -72
-395 -156 -62 -43 -250 -227 -250 -245 0 -5 -11 -24 -24 -41 -72 -97 -142
-310 -153 -472 -6 -90 7 -118 59 -131 22 -5 33 0 58 24 29 29 30 34 30 118 0
107 16 167 80 304 26 55 37 74 74 125 139 191 367 327 571 342 54 4 80 11 110
32 74 49 75 55 75 416 0 242 4 336 14 385 18 78 38 136 54 152 7 7 12 16 12
21 0 10 53 81 85 112 89 90 285 180 311 143 5 -8 7 -346 4 -873 -6 -909 -5
-890 -52 -1030 -5 -16 -14 -43 -18 -60 -21 -76 -100 -251 -143 -320 -81 -129
-259 -330 -349 -395 -27 -18 -48 -37 -48 -42 0 -4 -5 -8 -11 -8 -6 0 -28 -12
-48 -27 -20 -16 -45 -34 -56 -40 -36 -23 -224 -113 -234 -113 -6 0 -25 -6 -43
-14 -39 -17 -123 -39 -231 -60 -105 -22 -390 -22 -470 -1 -32 8 -66 15 -76 15
-29 0 -120 29 -241 75 -253 98 -508 305 -672 546 -26 39 -48 72 -48 74 0 2
-13 26 -28 52 -49 85 -105 227 -135 348 -41 162 -67 513 -39 523 7 2 29 -9 50
-25 52 -41 118 -63 188 -63 59 0 154 26 177 49 6 6 16 11 23 11 7 0 32 23 57
50 25 28 50 50 55 50 6 0 19 -15 31 -33 21 -34 88 -81 150 -106 62 -25 173
-26 236 -2 30 11 65 26 77 33 48 28 117 102 149 161 l34 62 2 1255 c2 926 5
1266 14 1297 15 54 89 134 144 156 52 21 113 21 161 1z m-559 -1700 c39 -27
60 -51 80 -93 l28 -56 3 -380 c4 -431 0 -459 -67 -532 -62 -68 -85 -78 -182
-78 -85 0 -86 0 -133 39 -26 21 -59 56 -73 77 l-25 39 -1 432 -1 433 26 40
c39 60 99 108 149 118 13 3 51 3 84 1 48 -3 70 -11 112 -40z m-626 -177 c25
-16 60 -51 78 -78 l31 -48 0 -336 c0 -301 -2 -340 -17 -368 -26 -47 -53 -76
-98 -106 -35 -22 -50 -26 -120 -26 -69 0 -85 4 -120 26 -23 15 -53 43 -68 63
-56 72 -57 81 -57 405 0 316 3 342 49 409 25 34 113 90 152 94 64 8 123 -4
170 -35z"/>
</g>
</svg>
